<svg height="512pt" viewBox="0 -109 512.00003 512" width="512pt" xmlns="http://www.w3.org/2000/svg"><path d="m475.652344 99.785156v-7.261718c0-4.140626-3.355469-7.5-7.5-7.5-4.140625 0-7.5 3.359374-7.5 7.5v7.261718c0 4.140625 3.359375 7.5 7.5 7.5 4.144531 0 7.5-3.359375 7.5-7.5zm-102.492188-7.261718v7.261718c0 4.140625 3.359375 7.5 7.5 7.5 4.144532 0 7.5-3.359375 7.5-7.5v-7.261718c0-4.140626-3.355468-7.5-7.5-7.5-4.140625 0-7.5 3.359374-7.5 7.5zm57.125 2.65625c-1.484375 1.703124-3.625 2.679687-5.878906 2.679687-2.25 0-4.390625-.976563-5.878906-2.679687-2.71875-3.125-7.457032-3.449219-10.578125-.726563-3.125 2.71875-3.449219 7.457031-.730469 10.582031 4.335938 4.972656 10.601562 7.828125 17.1875 7.828125 6.589844 0 12.855469-2.855469 17.1875-7.828125 2.722656-3.125 2.398438-7.863281-.726562-10.582031-3.121094-2.722656-7.863282-2.398437-10.582032.726563zm80.671875 6.164062c-3.035156-20.78125-13.457031-39.789062-29.34375-53.527344-15.890625-13.734375-36.203125-21.296875-57.207031-21.296875-30.332031 0-57.632812 15.503907-73.402344 39.867188-20.953125-25.523438-48.359375-44.632813-78.90625-55.640625-.769531-.4375-1.582031-.714844-2.410156-.859375-18.734375-6.457031-38.597656-9.886719-58.851562-9.886719-45.722657 0-89.386719 17.078125-122.949219 48.089844-3.042969 2.808594-3.226563 7.554687-.417969 10.597656 2.8125 3.039062 7.554688 3.230469 10.597656.417969 9.789063-9.046875 20.519532-16.792969 31.945313-23.160157l21.402343 37.066407-39.605468 61.433593h-60.507813c5.195313-17.796874 13.300781-34.484374 24.175781-49.71875 2.410157-3.371093 1.628907-8.054687-1.742187-10.460937-3.375-2.410156-8.054687-1.625-10.464844 1.746094-12.75 17.851562-22.007812 37.542969-27.585937 58.601562-12.722656 1.167969-24.113282 9.03125-29.597656 20.726563-3.421876 7.296875-2.886719 15.710937 1.433593 22.511718 1.65625 2.609376 3.769531 4.808594 6.191407 6.535157-4.136719 2.507812-8 5.523437-11.515626 9.039062-2.925781 2.929688-2.925781 7.675781 0 10.605469 1.464844 1.464844 3.386719 2.195312 5.304688 2.195312 1.921875 0 3.839844-.730468 5.304688-2.195312 6.113281-6.113281 13.617187-10.25 21.902343-12.140625l11.511719 19.550781c.871094 1.472656 1.800781 2.925782 2.777344 4.34375-1.5625 4.285156-2.253906 8.890625-1.996094 13.609375l.445312 8.203125c.21875 3.972656.328126 7.996094.328126 11.964844v24.097656c0 10.941406 8.898437 19.84375 19.84375 19.84375h60.574218c10.941406 0 19.84375-8.902344 19.84375-19.84375v-5.90625c0-5.859375-.542968-11.6875-1.582031-17.417968-.015625-.066407-.023437-.136719-.039063-.203126-.171874-.949218-.363281-1.898437-.5625-2.84375h30.242188.011719.011719 33.144531c.007812.757813.03125 1.519532.03125 2.273438v24.097656c0 10.941406 8.902343 19.84375 19.84375 19.84375h60.570312c10.941407 0 19.84375-8.902344 19.84375-19.84375v-5.90625c0-5.871094-.542969-11.710937-1.585937-17.449218-.011719-.054688-.019532-.105469-.03125-.15625-.171875-.957032-.363282-1.910157-.566406-2.859376h5.371093c3.394531 0 6.757813-.246093 10.074219-.714843.011719 1 .039062 2.003906.039062 2.988281v24.097656c0 10.941406 8.902344 19.84375 19.84375 19.84375h60.574219c10.941407 0 19.84375-8.898437 19.84375-19.84375v-5.90625c0-5.867187-.542969-11.703125-1.585937-17.441406-.007813-.058594-.019532-.113281-.03125-.167969-2.035156-11.09375-5.972656-21.804687-11.691406-31.609375l-2.105469-3.605468h5.054687c11.730469 0 23.195313-2.015626 34.078125-5.988282 3.890625-1.421875 5.894531-5.726562 4.472657-9.617187-1.417969-3.890625-5.726563-5.894531-9.617188-4.472657-9.230469 3.371094-18.964844 5.078126-28.933594 5.078126h-120.421875c-6.0625 0-11.75-2.679688-15.609375-7.355469s-5.414062-10.769531-4.265625-16.722657c3.683594-19.070312 20.449219-32.90625 39.871094-32.90625h5.660156c14.421875 0 26.933594-9.773437 30.429688-23.765624l5.683593-22.753907c1.136719-4.554687 2.703126-8.90625 4.621094-13.035156.054688-.113281.105469-.226563.15625-.339844 11.769532-25.007812 37.027344-41.53125 65.527344-41.53125 17.402344 0 34.234375 6.269531 47.394531 17.648438 13.164063 11.378906 21.796875 27.128906 24.3125 44.34375 4.023438 27.546875-5.8125 55.277343-26.316406 74.179687-3.046875 2.808594-3.242187 7.550782-.433594 10.597656 2.808594 3.046876 7.550781 3.238282 10.597657.429688 24.148437-22.261719 35.734374-54.925781 30.996093-87.375zm-367.5-72.109375c21.003907-9.316406 43.894531-14.234375 67.378907-14.234375 15.855468 0 31.453124 2.304688 46.371093 6.660156l-25.445312 44.070313h-67.234375zm20.828125 51.496094h67.71875l34.628906 53.714843h-136.976562zm-67.242187 192.804687v4.96875h-29.425781c-2.671876 0-4.84375-2.171875-4.84375-4.84375v-24.097656c0-4.234375-.117188-8.535156-.347657-12.777344l-.445312-8.207031c-.292969-5.34375 1.574219-10.425781 5.253906-14.308594 3.675781-3.886719 8.648437-6.027343 14-6.027343h19.039063c6.832031 0 13.214843 3.667968 16.65625 9.566406l4.835937 8.289062c3.339844 5.71875 5.957031 11.804688 7.832031 18.109375h-3.226562c-16.171875 0-29.328125 13.15625-29.328125 29.328125zm35.992187.125c0 2.671875-2.175781 4.84375-4.84375 4.84375h-16.148437v-4.96875c0-7.902344 6.429687-14.328125 14.328125-14.328125h6.214844c.292968 2.832031.449218 5.683594.449218 8.546875zm35.570313-41.371094h-27.253907c-1.84375-4.734374-4.050781-9.339843-6.628906-13.753906l-4.835937-8.289062c-6.121094-10.488282-17.46875-17.003906-29.613281-17.003906h-19.039063c-8.65625 0-16.75 3.160156-23.066406 8.929687l-7.921875-13.457031h118.359375zm-141.316407-58.574218c-2.9375 0-5.53125-1.425782-7.109374-3.90625-1.574219-2.484375-1.765626-5.433594-.515626-8.097656 3.496094-7.453126 11.070313-12.265626 19.304688-12.265626h2.59375.023438.019531 74.269531.015625.015625 152.53125c-5.246094 6.734376-9.003906 14.734376-10.707031 23.558594-.046875.238282-.078125.472656-.117188.707032h-230.324219zm190.570313 30.238281c-6.542969 6.90625-9.859375 15.941406-9.339844 25.441406l.15625 2.898438h-25.074219v-43.578125h74.660157c.40625 1.542968.925781 3.050781 1.542969 4.527344h-17.050782c-9.511718 0-18.351562 3.804687-24.894531 10.710937zm190.253906 63.800781v5.90625c0 2.671875-2.171875 4.84375-4.84375 4.84375h-16.148437v-4.96875c0-7.898437 6.429687-14.328125 14.332031-14.328125h6.210937c.296876 2.832031.449219 5.683594.449219 8.546875zm-34.863281-52.824218h16.683594c.777344.898437 1.480468 1.855468 2.078125 2.878906l4.835937 8.289062c3.339844 5.71875 5.957032 11.804688 7.828125 18.109375h-3.222656c-16.175781 0-29.332031 13.15625-29.332031 29.328125v4.96875h-29.425782c-2.671874 0-4.84375-2.171875-4.84375-4.84375v-24.097656c0-2.222656-.039062-4.480469-.105468-6.746094 14.324218-5.269531 26.863281-14.96875 35.503906-27.886718zm-19.253906 0c-10.746094 10.929687-25.617188 17.359374-41.257813 17.359374h-9.867187c-1.84375-4.734374-4.050782-9.339843-6.628906-13.753906l-2.105469-3.605468zm-59.894532 44.277343c.296876 2.832031.449219 5.683594.449219 8.546875v5.90625c0 2.671875-2.171875 4.84375-4.84375 4.84375h-16.148437v-4.96875c0-7.902344 6.429687-14.328125 14.332031-14.328125zm-15.652343-41.398437 4.835937 8.289062c3.339844 5.71875 5.957032 11.804688 7.828125 18.109375h-3.222656c-16.171875 0-29.328125 13.15625-29.328125 29.328125v4.96875h-29.429688c-2.667968 0-4.84375-2.171875-4.84375-4.84375v-24.097656c0-4.242188-.117187-8.542969-.347656-12.777344l-.445312-8.207031c-.289063-5.34375 1.574218-10.425781 5.253906-14.308594 3.679688-3.886719 8.652344-6.027343 14.003906-6.027343h19.039063c6.832031 0 13.210937 3.664062 16.65625 9.566406zm61.097656-125.019532-5.683594 22.757813c-1.824219 7.300781-8.351562 12.398437-15.875 12.398437h-5.660156c-9.335937 0-18.21875 2.339844-26.039063 6.5h-1.808593l-39.601563-61.429687 26.789063-46.40625c28.121093 11.09375 53.097656 29.753906 71.746093 54.371094-1.542968 3.800781-2.847656 7.734375-3.867187 11.808593zm0 0"/></svg>